<svg xmlns="http://www.w3.org/2000/svg" xmlns:xlink="http://www.w3.org/1999/xlink" width="500" zoomAndPan="magnify" viewBox="0 0 375 374.999991" height="500" preserveAspectRatio="xMidYMid meet" version="1.0"><defs><clipPath id="1eec9b0151"><path d="M 122 108 L 296 108 L 296 361.664062 L 122 361.664062 Z M 122 108 " clip-rule="nonzero"/></clipPath><clipPath id="b69d408452"><path d="M 0 14 L 375 14 L 375 361.664062 L 0 361.664062 Z M 0 14 " clip-rule="nonzero"/></clipPath></defs><g clip-path="url(#1eec9b0151)"><path fill="#1e40af" d="M 122.335938 361.566406 L 122.335938 108.09375 L 295.964844 108.09375 C 295.964844 131.777344 276.78125 150.972656 253.121094 150.972656 L 173.472656 150.972656 L 173.472656 210.96875 L 279.207031 210.96875 C 279.207031 234.652344 260.023438 253.847656 236.359375 253.847656 L 173.472656 253.847656 L 173.472656 310.386719 C 173.472656 338.652344 150.578125 361.566406 122.335938 361.566406 " fill-opacity="1" fill-rule="nonzero"/></g><g clip-path="url(#b69d408452)"><path fill="#1e40af" d="M 102.046875 91.382812 C 184.515625 25.234375 302.625 33.660156 375.03125 107.679688 C 371.351562 102.015625 367.363281 96.484375 363.058594 91.105469 C 292.652344 3.195312 164.363281 -10.949219 76.519531 59.507812 C -11.324219 129.96875 -25.457031 258.351562 44.949219 346.265625 C 49.257812 351.644531 53.78125 356.738281 58.503906 361.566406 C 2.078125 274.730469 19.578125 157.53125 102.046875 91.382812 " fill-opacity="1" fill-rule="nonzero"/></g></svg>