<svg xmlns="http://www.w3.org/2000/svg" xmlns:xlink="http://www.w3.org/1999/xlink" width="500" zoomAndPan="magnify" viewBox="0 0 375 374.999991" height="500" preserveAspectRatio="xMidYMid meet" version="1.0"><defs><clipPath id="8949668028"><path d="M 183 173 L 375 173 L 375 364.160156 L 183 364.160156 Z M 183 173 " clip-rule="nonzero"/></clipPath><clipPath id="e19fe01b65"><path d="M 229 173 L 375 173 L 375 364.160156 L 229 364.160156 Z M 229 173 " clip-rule="nonzero"/></clipPath><clipPath id="a701d9938b"><path d="M 91 120 L 92 120 L 92 121 L 91 121 Z M 91 120 " clip-rule="nonzero"/></clipPath><clipPath id="6a52c3f529"><path d="M 83.917969 100.667969 L 158.808594 89.28125 L 171.210938 170.84375 L 96.320312 182.230469 Z M 83.917969 100.667969 " clip-rule="nonzero"/></clipPath><clipPath id="57a0814e49"><path d="M 83.917969 100.667969 L 158.808594 89.28125 L 171.210938 170.84375 L 96.320312 182.230469 Z M 83.917969 100.667969 " clip-rule="nonzero"/></clipPath><clipPath id="9ea81c8333"><path d="M 129 121 L 152 121 L 152 159 L 129 159 Z M 129 121 " clip-rule="nonzero"/></clipPath><clipPath id="886aad22b1"><path d="M 83.917969 100.667969 L 158.808594 89.28125 L 171.210938 170.84375 L 96.320312 182.230469 Z M 83.917969 100.667969 " clip-rule="nonzero"/></clipPath><clipPath id="45f510567a"><path d="M 83.917969 100.667969 L 158.808594 89.28125 L 171.210938 170.84375 L 96.320312 182.230469 Z M 83.917969 100.667969 " clip-rule="nonzero"/></clipPath><clipPath id="b854b2cc96"><path d="M 150 111 L 169 111 L 169 151 L 150 151 Z M 150 111 " clip-rule="nonzero"/></clipPath><clipPath id="bdc70f8c0b"><path d="M 83.917969 100.667969 L 158.808594 89.28125 L 171.210938 170.84375 L 96.320312 182.230469 Z M 83.917969 100.667969 " clip-rule="nonzero"/></clipPath><clipPath id="55ccfa3a62"><path d="M 83.917969 100.667969 L 158.808594 89.28125 L 171.210938 170.84375 L 96.320312 182.230469 Z M 83.917969 100.667969 " clip-rule="nonzero"/></clipPath><clipPath id="744c6d78a0"><path d="M 104 111 L 147 111 L 147 135 L 104 135 Z M 104 111 " clip-rule="nonzero"/></clipPath><clipPath id="28dd6351d7"><path d="M 83.917969 100.667969 L 158.808594 89.28125 L 171.210938 170.84375 L 96.320312 182.230469 Z M 83.917969 100.667969 " clip-rule="nonzero"/></clipPath><clipPath id="99b674b390"><path d="M 83.917969 100.667969 L 158.808594 89.28125 L 171.210938 170.84375 L 96.320312 182.230469 Z M 83.917969 100.667969 " clip-rule="nonzero"/></clipPath><clipPath id="25b4607df7"><path d="M 133 147 L 167 147 L 167 177 L 133 177 Z M 133 147 " clip-rule="nonzero"/></clipPath><clipPath id="8d7051cd8e"><path d="M 83.917969 100.667969 L 158.808594 89.28125 L 171.210938 170.84375 L 96.320312 182.230469 Z M 83.917969 100.667969 " clip-rule="nonzero"/></clipPath><clipPath id="f9932520e2"><path d="M 83.917969 100.667969 L 158.808594 89.28125 L 171.210938 170.84375 L 96.320312 182.230469 Z M 83.917969 100.667969 " clip-rule="nonzero"/></clipPath><clipPath id="4babfeeb20"><path d="M 95 154 L 133 154 L 133 177 L 95 177 Z M 95 154 " clip-rule="nonzero"/></clipPath><clipPath id="5300ca107b"><path d="M 83.917969 100.667969 L 158.808594 89.28125 L 171.210938 170.84375 L 96.320312 182.230469 Z M 83.917969 100.667969 " clip-rule="nonzero"/></clipPath><clipPath id="ff8bd898bf"><path d="M 83.917969 100.667969 L 158.808594 89.28125 L 171.210938 170.84375 L 96.320312 182.230469 Z M 83.917969 100.667969 " clip-rule="nonzero"/></clipPath><clipPath id="908d24505f"><path d="M 87 122 L 105 122 L 105 162 L 87 162 Z M 87 122 " clip-rule="nonzero"/></clipPath><clipPath id="3a1b2d7279"><path d="M 83.917969 100.667969 L 158.808594 89.28125 L 171.210938 170.84375 L 96.320312 182.230469 Z M 83.917969 100.667969 " clip-rule="nonzero"/></clipPath><clipPath id="09d16c60f3"><path d="M 83.917969 100.667969 L 158.808594 89.28125 L 171.210938 170.84375 L 96.320312 182.230469 Z M 83.917969 100.667969 " clip-rule="nonzero"/></clipPath><clipPath id="9d2d4caa69"><path d="M 88 95 L 123 95 L 123 125 L 88 125 Z M 88 95 " clip-rule="nonzero"/></clipPath><clipPath id="1fe434c385"><path d="M 83.917969 100.667969 L 158.808594 89.28125 L 171.210938 170.84375 L 96.320312 182.230469 Z M 83.917969 100.667969 " clip-rule="nonzero"/></clipPath><clipPath id="0484e1ad3d"><path d="M 83.917969 100.667969 L 158.808594 89.28125 L 171.210938 170.84375 L 96.320312 182.230469 Z M 83.917969 100.667969 " clip-rule="nonzero"/></clipPath><clipPath id="327f10327e"><path d="M 103 128 L 130 128 L 130 159 L 103 159 Z M 103 128 " clip-rule="nonzero"/></clipPath><clipPath id="4e92e797ce"><path d="M 83.917969 100.667969 L 158.808594 89.28125 L 171.210938 170.84375 L 96.320312 182.230469 Z M 83.917969 100.667969 " clip-rule="nonzero"/></clipPath><clipPath id="025c9f3665"><path d="M 83.917969 100.667969 L 158.808594 89.28125 L 171.210938 170.84375 L 96.320312 182.230469 Z M 83.917969 100.667969 " clip-rule="nonzero"/></clipPath><clipPath id="02f32aa9a0"><path d="M 122 94 L 161 94 L 161 118 L 122 118 Z M 122 94 " clip-rule="nonzero"/></clipPath><clipPath id="60b791a653"><path d="M 83.917969 100.667969 L 158.808594 89.28125 L 171.210938 170.84375 L 96.320312 182.230469 Z M 83.917969 100.667969 " clip-rule="nonzero"/></clipPath><clipPath id="bbeb287751"><path d="M 83.917969 100.667969 L 158.808594 89.28125 L 171.210938 170.84375 L 96.320312 182.230469 Z M 83.917969 100.667969 " clip-rule="nonzero"/></clipPath><clipPath id="46af5ddf52"><path d="M 315 273 L 332 273 L 332 301 L 315 301 Z M 315 273 " clip-rule="nonzero"/></clipPath><clipPath id="32a502d4fb"><path d="M 278.851562 268.1875 L 328.546875 249.050781 L 349.296875 302.941406 L 299.605469 322.078125 Z M 278.851562 268.1875 " clip-rule="nonzero"/></clipPath><clipPath id="53267aa176"><path d="M 278.851562 268.1875 L 328.546875 249.050781 L 349.296875 302.941406 L 299.605469 322.078125 Z M 278.851562 268.1875 " clip-rule="nonzero"/></clipPath><clipPath id="9e6bcf5ce2"><path d="M 327 263 L 344 263 L 344 290 L 327 290 Z M 327 263 " clip-rule="nonzero"/></clipPath><clipPath id="03e18af1c4"><path d="M 278.851562 268.1875 L 328.546875 249.050781 L 349.296875 302.941406 L 299.605469 322.078125 Z M 278.851562 268.1875 " clip-rule="nonzero"/></clipPath><clipPath id="aa04011835"><path d="M 278.851562 268.1875 L 328.546875 249.050781 L 349.296875 302.941406 L 299.605469 322.078125 Z M 278.851562 268.1875 " clip-rule="nonzero"/></clipPath><clipPath id="e31ccde4f8"><path d="M 297 269 L 325 269 L 325 285 L 297 285 Z M 297 269 " clip-rule="nonzero"/></clipPath><clipPath id="e066cbd3b0"><path d="M 278.851562 268.1875 L 328.546875 249.050781 L 349.296875 302.941406 L 299.605469 322.078125 Z M 278.851562 268.1875 " clip-rule="nonzero"/></clipPath><clipPath id="2ef86f433a"><path d="M 278.851562 268.1875 L 328.546875 249.050781 L 349.296875 302.941406 L 299.605469 322.078125 Z M 278.851562 268.1875 " clip-rule="nonzero"/></clipPath><clipPath id="bf92fa3c6e"><path d="M 321 289 L 343 289 L 343 313 L 321 313 Z M 321 289 " clip-rule="nonzero"/></clipPath><clipPath id="26861163c0"><path d="M 278.851562 268.1875 L 328.546875 249.050781 L 349.296875 302.941406 L 299.605469 322.078125 Z M 278.851562 268.1875 " clip-rule="nonzero"/></clipPath><clipPath id="c5c8794812"><path d="M 278.851562 268.1875 L 328.546875 249.050781 L 349.296875 302.941406 L 299.605469 322.078125 Z M 278.851562 268.1875 " clip-rule="nonzero"/></clipPath><clipPath id="0ac3ec7bb6"><path d="M 296 301 L 324 301 L 324 313 L 296 313 Z M 296 301 " clip-rule="nonzero"/></clipPath><clipPath id="54961d0ae1"><path d="M 278.851562 268.1875 L 328.546875 249.050781 L 349.296875 302.941406 L 299.605469 322.078125 Z M 278.851562 268.1875 " clip-rule="nonzero"/></clipPath><clipPath id="343bca1eb5"><path d="M 278.851562 268.1875 L 328.546875 249.050781 L 349.296875 302.941406 L 299.605469 322.078125 Z M 278.851562 268.1875 " clip-rule="nonzero"/></clipPath><clipPath id="2709d11801"><path d="M 284 282 L 301 282 L 301 309 L 284 309 Z M 284 282 " clip-rule="nonzero"/></clipPath><clipPath id="eaafbaafa0"><path d="M 278.851562 268.1875 L 328.546875 249.050781 L 349.296875 302.941406 L 299.605469 322.078125 Z M 278.851562 268.1875 " clip-rule="nonzero"/></clipPath><clipPath id="41166d3ebf"><path d="M 278.851562 268.1875 L 328.546875 249.050781 L 349.296875 302.941406 L 299.605469 322.078125 Z M 278.851562 268.1875 " clip-rule="nonzero"/></clipPath><clipPath id="5698af38bf"><path d="M 284 258 L 307 258 L 307 282 L 284 282 Z M 284 258 " clip-rule="nonzero"/></clipPath><clipPath id="4eadd047fc"><path d="M 278.851562 268.1875 L 328.546875 249.050781 L 349.296875 302.941406 L 299.605469 322.078125 Z M 278.851562 268.1875 " clip-rule="nonzero"/></clipPath><clipPath id="3cd78132dc"><path d="M 278.851562 268.1875 L 328.546875 249.050781 L 349.296875 302.941406 L 299.605469 322.078125 Z M 278.851562 268.1875 " clip-rule="nonzero"/></clipPath><clipPath id="fffb24735a"><path d="M 296 284 L 319 284 L 319 302 L 296 302 Z M 296 284 " clip-rule="nonzero"/></clipPath><clipPath id="c9b708dba2"><path d="M 278.851562 268.1875 L 328.546875 249.050781 L 349.296875 302.941406 L 299.605469 322.078125 Z M 278.851562 268.1875 " clip-rule="nonzero"/></clipPath><clipPath id="36cba33f5d"><path d="M 278.851562 268.1875 L 328.546875 249.050781 L 349.296875 302.941406 L 299.605469 322.078125 Z M 278.851562 268.1875 " clip-rule="nonzero"/></clipPath><clipPath id="bffd9ebfb5"><path d="M 304 258 L 333 258 L 333 270 L 304 270 Z M 304 258 " clip-rule="nonzero"/></clipPath><clipPath id="fe0c3bcaf2"><path d="M 278.851562 268.1875 L 328.546875 249.050781 L 349.296875 302.941406 L 299.605469 322.078125 Z M 278.851562 268.1875 " clip-rule="nonzero"/></clipPath><clipPath id="3740740c62"><path d="M 278.851562 268.1875 L 328.546875 249.050781 L 349.296875 302.941406 L 299.605469 322.078125 Z M 278.851562 268.1875 " clip-rule="nonzero"/></clipPath></defs><path fill="#25386e" d="M 252.074219 117.953125 C 250.398438 106.699219 240.871094 98.777344 230.800781 100.273438 C 228.125 100.683594 225.675781 101.71875 223.558594 103.214844 L 223.507812 103.246094 C 222.011719 104.332031 220.664062 105.644531 219.515625 107.15625 C 207.722656 117.128906 199.984375 109.097656 197.785156 106.222656 L 189.765625 52.460938 L 135.03125 60.609375 C 131.023438 58.785156 123.351562 53.414062 128.886719 40.53125 C 130.003906 39.003906 130.875 37.34375 131.46875 35.570312 L 131.5 35.523438 L 131.484375 35.523438 C 132.304688 33.058594 132.585938 30.410156 132.191406 27.75 C 130.695312 17.660156 120.347656 10.84375 109.078125 12.519531 C 97.824219 14.210938 89.90625 23.726562 91.402344 33.8125 C 91.796875 36.492188 92.847656 38.921875 94.34375 41.042969 L 94.328125 41.058594 L 94.375 41.089844 C 95.460938 42.621094 96.773438 43.949219 98.285156 45.082031 C 107.335938 55.8125 101.554688 63.171875 98.253906 66.097656 L 43.519531 74.246094 L 51.351562 126.988281 L 51.207031 127.003906 C 51.207031 127.003906 47.28125 142.613281 30.308594 135.335938 C 28.78125 134.21875 27.125 133.347656 25.367188 132.753906 L 25.300781 132.722656 C 22.835938 131.917969 20.207031 131.636719 17.53125 132.03125 C 7.445312 133.527344 0.640625 143.878906 2.3125 155.132812 C 3.996094 166.40625 13.523438 174.324219 23.589844 172.8125 C 26.269531 172.417969 28.71875 171.382812 30.835938 169.886719 L 30.886719 169.839844 C 32.398438 168.769531 33.726562 167.441406 34.878906 165.929688 C 48.972656 154.015625 57.265625 167.800781 57.265625 167.800781 L 57.429688 167.785156 L 65.285156 220.542969 L 118.015625 212.6875 C 118.015625 212.6875 133.621094 216.597656 126.324219 233.570312 C 125.226562 235.097656 124.355469 236.757812 123.761719 238.535156 L 123.730469 238.582031 L 123.746094 238.582031 C 122.925781 241.046875 122.628906 243.691406 123.039062 246.371094 C 124.535156 256.441406 134.882812 263.261719 146.136719 261.585938 C 157.40625 259.910156 165.324219 250.378906 163.8125 240.292969 C 163.417969 237.613281 162.382812 235.183594 160.871094 233.0625 L 160.886719 233.046875 L 160.839844 233.011719 C 159.753906 231.5 158.441406 230.152344 156.929688 229.019531 C 145.035156 214.921875 158.785156 206.625 158.800781 206.609375 L 211.550781 198.757812 L 203.550781 144.996094 C 204.8125 141.59375 209.890625 131.671875 224.082031 137.765625 C 225.609375 138.882812 227.269531 139.753906 229.027344 140.347656 L 229.09375 140.378906 L 229.09375 140.363281 C 231.558594 141.183594 234.183594 141.464844 236.863281 141.070312 C 246.949219 139.574219 253.75 129.222656 252.074219 117.953125 " fill-opacity="1" fill-rule="nonzero"/><path fill="#1468c0" d="M 23.589844 172.8125 C 26.269531 172.417969 28.71875 171.382812 30.835938 169.886719 L 30.886719 169.839844 C 32.398438 168.769531 33.726562 167.441406 34.878906 165.929688 C 48.972656 154.015625 57.265625 167.800781 57.265625 167.800781 L 57.429688 167.785156 L 65.285156 220.542969 L 118.015625 212.6875 C 118.015625 212.6875 133.621094 216.597656 126.324219 233.570312 C 125.226562 235.097656 124.355469 236.757812 123.761719 238.535156 L 123.730469 238.582031 L 123.746094 238.582031 C 122.925781 241.046875 122.628906 243.691406 123.039062 246.371094 C 124.535156 256.441406 134.882812 263.261719 146.136719 261.585938 C 157.40625 259.910156 165.324219 250.378906 163.8125 240.292969 C 163.417969 237.613281 162.382812 235.183594 160.871094 233.0625 L 160.886719 233.046875 L 160.839844 233.011719 C 159.753906 231.5 158.441406 230.152344 156.929688 229.019531 C 145.035156 214.921875 158.785156 206.625 158.800781 206.609375 L 211.550781 198.757812 L 207.769531 173.339844 C 109.949219 166.898438 72.9375 111.066406 58.992188 71.929688 L 43.519531 74.246094 L 51.351562 126.988281 L 51.207031 127.003906 C 51.207031 127.003906 47.28125 142.613281 30.308594 135.335938 C 28.78125 134.21875 27.125 133.347656 25.367188 132.753906 L 25.300781 132.722656 C 22.835938 131.917969 20.207031 131.636719 17.53125 132.03125 C 7.445312 133.527344 0.640625 143.878906 2.3125 155.132812 C 3.996094 166.40625 13.523438 174.324219 23.589844 172.8125 " fill-opacity="1" fill-rule="nonzero"/><g clip-path="url(#8949668028)"><path fill="#25386e" d="M 271.769531 192.132812 C 271.769531 192.132812 260.125 203.226562 274.824219 214.398438 C 276.535156 215.1875 278.128906 216.203125 279.507812 217.453125 L 279.554688 217.488281 L 279.539062 217.488281 C 281.460938 219.226562 283.023438 221.378906 283.992188 223.910156 C 287.636719 233.421875 281.988281 244.449219 271.359375 248.523438 C 260.730469 252.613281 249.148438 248.210938 245.503906 238.699219 C 244.519531 236.167969 244.238281 233.539062 244.484375 230.960938 L 244.5 230.894531 C 244.699219 229.054688 245.175781 227.230469 245.945312 225.503906 C 249.363281 207.367188 233.28125 206.921875 233.28125 206.921875 L 183.507812 226.046875 L 202.628906 275.832031 C 202.628906 275.832031 213.734375 287.480469 224.902344 272.789062 C 225.691406 271.066406 226.710938 269.472656 227.941406 268.089844 L 227.992188 268.042969 L 227.992188 268.058594 C 229.734375 266.136719 231.886719 264.59375 234.414062 263.605469 C 243.925781 259.957031 254.949219 265.609375 259.023438 276.257812 C 263.113281 286.871094 258.710938 298.453125 249.199219 302.117188 C 246.667969 303.089844 244.042969 303.382812 241.460938 303.121094 L 241.398438 303.105469 C 239.558594 302.921875 237.734375 302.414062 235.992188 301.675781 C 217.855469 298.242188 217.414062 314.328125 217.414062 314.328125 L 236.535156 364.109375 L 374.570312 311.074219 L 321.558594 173.007812 L 271.769531 192.132812 " fill-opacity="1" fill-rule="nonzero"/></g><path fill="#25386e" d="M 314.90625 175.554688 L 321.558594 173.007812 L 314.90625 175.554688 " fill-opacity="1" fill-rule="nonzero"/><g clip-path="url(#e19fe01b65)"><path fill="#1468c0" d="M 236.535156 364.109375 L 229.191406 344.96875 C 263.917969 335.144531 336.066406 299.589844 314.90625 175.554688 L 321.558594 173.007812 L 374.570312 311.074219 L 236.535156 364.109375 " fill-opacity="1" fill-rule="nonzero"/></g><g clip-path="url(#a701d9938b)"><g clip-path="url(#6a52c3f529)"><g clip-path="url(#57a0814e49)"><path fill="#000000" d="M 91.722656 120.363281 L 91.726562 120.359375 L 91.722656 120.359375 Z M 91.722656 120.363281 " fill-opacity="1" fill-rule="nonzero"/></g></g></g><g clip-path="url(#9ea81c8333)"><g clip-path="url(#886aad22b1)"><g clip-path="url(#45f510567a)"><path fill="#ffffff" d="M 132.523438 158.4375 L 151.496094 144.117188 L 148.128906 121.984375 L 129.242188 136.859375 Z M 132.523438 158.4375 " fill-opacity="1" fill-rule="nonzero"/></g></g></g><g clip-path="url(#b854b2cc96)"><g clip-path="url(#bdc70f8c0b)"><g clip-path="url(#55ccfa3a62)"><path fill="#ffffff" d="M 162.070312 111 L 150.824219 119.851562 L 154.648438 144.984375 L 168.015625 150.105469 Z M 162.070312 111 " fill-opacity="1" fill-rule="nonzero"/></g></g></g><g clip-path="url(#744c6d78a0)"><g clip-path="url(#28dd6351d7)"><g clip-path="url(#99b674b390)"><path fill="#ffffff" d="M 146.351562 119.632812 L 123.894531 111.566406 L 104.84375 125.945312 L 127.390625 134.566406 Z M 146.351562 119.632812 " fill-opacity="1" fill-rule="nonzero"/></g></g></g><g clip-path="url(#25b4607df7)"><g clip-path="url(#8d7051cd8e)"><g clip-path="url(#f9932520e2)"><path fill="#ffffff" d="M 152.261719 147.230469 L 133.027344 161.746094 L 135.242188 176.3125 L 166.03125 152.5 Z M 152.261719 147.230469 " fill-opacity="1" fill-rule="nonzero"/></g></g></g><g clip-path="url(#4babfeeb20)"><g clip-path="url(#5300ca107b)"><g clip-path="url(#ff8bd898bf)"><path fill="#ffffff" d="M 130.078125 162.195312 L 107.402344 154.050781 L 95.816406 163.175781 L 132.292969 176.761719 Z M 130.078125 162.195312 " fill-opacity="1" fill-rule="nonzero"/></g></g></g><g clip-path="url(#908d24505f)"><g clip-path="url(#3a1b2d7279)"><g clip-path="url(#09d16c60f3)"><path fill="#ffffff" d="M 93.203125 161.480469 L 104.449219 152.617188 L 100.625 127.488281 L 87.257812 122.378906 Z M 93.203125 161.480469 " fill-opacity="1" fill-rule="nonzero"/></g></g></g><g clip-path="url(#9d2d4caa69)"><g clip-path="url(#1fe434c385)"><g clip-path="url(#0484e1ad3d)"><path fill="#ffffff" d="M 101.59375 124.703125 L 122.027344 109.28125 L 119.886719 95.199219 L 88.316406 119.625 Z M 101.59375 124.703125 " fill-opacity="1" fill-rule="nonzero"/></g></g></g><g clip-path="url(#327f10327e)"><g clip-path="url(#4e92e797ce)"><g clip-path="url(#025c9f3665)"><path fill="#ffffff" d="M 126.292969 137.308594 L 103.835938 128.71875 L 107.203125 150.855469 L 129.574219 158.882812 Z M 126.292969 137.308594 " fill-opacity="1" fill-rule="nonzero"/></g></g></g><g clip-path="url(#02f32aa9a0)"><g clip-path="url(#60b791a653)"><g clip-path="url(#bbeb287751)"><path fill="#ffffff" d="M 124.980469 108.832031 L 149.074219 117.488281 L 160.246094 108.683594 L 122.839844 94.75 Z M 124.980469 108.832031 " fill-opacity="1" fill-rule="nonzero"/></g></g></g><g clip-path="url(#46af5ddf52)"><g clip-path="url(#32a502d4fb)"><g clip-path="url(#53267aa176)"><path fill="#ffffff" d="M 320.882812 300.320312 L 331.761719 287.65625 L 326.128906 273.03125 L 315.394531 286.066406 Z M 320.882812 300.320312 " fill-opacity="1" fill-rule="nonzero"/></g></g></g><g clip-path="url(#9e6bcf5ce2)"><g clip-path="url(#03e18af1c4)"><g clip-path="url(#aa04011835)"><path fill="#ffffff" d="M 334.050781 263.40625 L 327.660156 271.164062 L 334.054688 287.769531 L 344 289.242188 Z M 334.050781 263.40625 " fill-opacity="1" fill-rule="nonzero"/></g></g></g><g clip-path="url(#e31ccde4f8)"><g clip-path="url(#e066cbd3b0)"><g clip-path="url(#2ef86f433a)"><path fill="#ffffff" d="M 324.554688 271.691406 L 307.925781 269.582031 L 297.007812 282.300781 L 313.777344 284.777344 Z M 324.554688 271.691406 " fill-opacity="1" fill-rule="nonzero"/></g></g></g><g clip-path="url(#bf92fa3c6e)"><g clip-path="url(#26861163c0)"><g clip-path="url(#c5c8794812)"><path fill="#ffffff" d="M 332.753906 289.667969 L 321.726562 302.507812 L 325.433594 312.132812 L 342.996094 291.183594 Z M 332.753906 289.667969 " fill-opacity="1" fill-rule="nonzero"/></g></g></g><g clip-path="url(#0ac3ec7bb6)"><g clip-path="url(#54961d0ae1)"><g clip-path="url(#343bca1eb5)"><path fill="#ffffff" d="M 319.769531 303.261719 L 302.976562 301.132812 L 296.394531 309.128906 L 323.476562 312.886719 Z M 319.769531 303.261719 " fill-opacity="1" fill-rule="nonzero"/></g></g></g><g clip-path="url(#2709d11801)"><g clip-path="url(#eaafbaafa0)"><g clip-path="url(#41166d3ebf)"><path fill="#ffffff" d="M 294.347656 308.363281 L 300.734375 300.601562 L 294.339844 283.996094 L 284.398438 282.527344 Z M 294.347656 308.363281 " fill-opacity="1" fill-rule="nonzero"/></g></g></g><g clip-path="url(#5698af38bf)"><g clip-path="url(#4eadd047fc)"><g clip-path="url(#3cd78132dc)"><path fill="#ffffff" d="M 294.589844 281.945312 L 306.304688 268.300781 L 302.71875 258.996094 L 284.710938 280.484375 Z M 294.589844 281.945312 " fill-opacity="1" fill-rule="nonzero"/></g></g></g><g clip-path="url(#fffb24735a)"><g clip-path="url(#c9b708dba2)"><g clip-path="url(#36cba33f5d)"><path fill="#ffffff" d="M 313.4375 286.820312 L 296.730469 284.351562 L 302.363281 298.976562 L 318.925781 301.074219 Z M 313.4375 286.820312 " fill-opacity="1" fill-rule="nonzero"/></g></g></g><g clip-path="url(#bffd9ebfb5)"><g clip-path="url(#fe0c3bcaf2)"><g clip-path="url(#3740740c62)"><path fill="#ffffff" d="M 308.261719 267.546875 L 326.101562 269.8125 L 332.453125 262.097656 L 304.679688 258.242188 Z M 308.261719 267.546875 " fill-opacity="1" fill-rule="nonzero"/></g></g></g></svg>